<svg width="82" height="19" viewBox="0 0 82 19" fill="none" xmlns="http://www.w3.org/2000/svg">
<path d="M20.869 6.616C18.357 6.536 15.917 6.488 13.549 6.472V19H7.54897V6.472C5.16497 6.488 2.73297 6.536 0.252969 6.616V1.576H20.869V6.616ZM43.4158 6.616C40.9038 6.536 38.4638 6.488 36.0958 6.472V19H30.0958V6.472C27.7118 6.488 25.2798 6.536 22.7998 6.616V1.576H43.4158V6.616ZM65.4587 1.576C65.3467 4.28 65.2907 7.184 65.2907 10.288C65.2907 13.392 65.3467 16.296 65.4587 19H59.8187V12.472H50.9867V19H45.3467C45.4747 15.896 45.5387 12.992 45.5387 10.288C45.5387 7.584 45.4747 4.68 45.3467 1.576H50.9867V8.104H59.8187V1.576H65.4587ZM80.3427 1.24L81.9987 4.12L79.7427 5.104L81.9987 6.088L80.3427 8.968L78.3507 7.504L78.6387 9.952H75.3027L75.5907 7.504L73.5987 8.968L71.9427 6.088L74.1987 5.104L71.9427 4.12L73.5987 1.24L75.5907 2.704L75.3027 0.256H78.6387L78.3507 2.704L80.3427 1.24Z" fill="black"/>
</svg>
