<svg width="174" height="19" viewBox="0 0 174 19" fill="none" xmlns="http://www.w3.org/2000/svg">
<path d="M20.8846 5.616C18.3726 5.536 15.9326 5.488 13.5646 5.472V18H7.56459V5.472C5.18059 5.488 2.74859 5.536 0.268594 5.616V0.576H20.8846V5.616ZM28.4795 13.608C34.5595 13.576 38.9675 13.488 41.7035 13.344C41.5915 14 41.5195 14.68 41.4875 15.384C41.4715 16.072 41.4635 16.944 41.4635 18H22.8155C22.9435 14.896 23.0075 11.992 23.0075 9.288C23.0075 6.584 22.9435 3.68 22.8155 0.576H41.4635V4.92H28.4795V7.224C29.2475 7.24 30.3835 7.248 31.8875 7.248C34.4315 7.248 37.0635 7.2 39.7835 7.104V11.232C37.0635 11.136 34.4315 11.088 31.8875 11.088C30.3835 11.088 29.2475 11.096 28.4795 11.112V13.608ZM56.156 18C55.404 16.64 54.156 14.56 52.412 11.76L49.604 14.544V18H43.628C43.756 14.896 43.82 11.992 43.82 9.288C43.82 6.584 43.756 3.68 43.628 0.576H49.604V7.608C52.548 4.696 54.644 2.352 55.892 0.576H63.668L56.108 8.064C57.228 9.632 58.484 11.336 59.876 13.176C61.284 15.016 62.556 16.624 63.692 18H56.156ZM85.994 5.616C83.482 5.536 81.042 5.488 78.674 5.472V18H72.674V5.472C70.29 5.488 67.858 5.536 65.378 5.616V0.576H85.994V5.616ZM108.037 0.576C107.925 3.28 107.869 6.184 107.869 9.288C107.869 12.392 107.925 15.296 108.037 18H102.397V11.472H93.5648V18H87.9248C88.0528 14.896 88.1168 11.992 88.1168 9.288C88.1168 6.584 88.0528 3.68 87.9248 0.576H93.5648V7.104H102.397V0.576H108.037ZM125.1 18C124.796 17.088 124.388 15.944 123.876 14.568H116.22L115.02 18H108.996L115.716 0.576H124.548L131.316 18H125.1ZM122.508 10.824C121.9 9.144 121.276 7.464 120.636 5.784L120.06 4.224C119.5 5.68 118.676 7.88 117.588 10.824H122.508ZM145.609 0.551999H151.561V10.104C151.529 12.456 150.721 14.4 149.137 15.936C147.569 17.472 144.921 18.24 141.193 18.24C137.417 18.24 134.833 17.512 133.441 16.056C132.049 14.584 131.369 12.656 131.401 10.272V0.551999H137.353V9.888C137.353 10.592 137.401 11.168 137.497 11.616C137.609 12.048 137.945 12.456 138.505 12.84C139.081 13.224 140.001 13.416 141.265 13.416C142.641 13.416 143.649 13.224 144.289 12.84C144.929 12.44 145.305 12 145.417 11.52C145.545 11.04 145.609 10.424 145.609 9.672V0.551999ZM153.48 15.936C154.024 15.12 154.472 14.36 154.824 13.656C155.192 12.952 155.544 12.136 155.88 11.208C157.016 11.864 158.336 12.376 159.84 12.744C161.344 13.112 162.744 13.296 164.04 13.296C165.368 13.296 166.304 13.184 166.848 12.96C167.392 12.72 167.664 12.464 167.664 12.192C167.664 11.216 166.176 10.728 163.2 10.728C159.936 10.728 157.568 10.392 156.096 9.72C154.624 9.032 153.888 7.928 153.888 6.408C153.888 4.248 154.784 2.656 156.576 1.632C158.368 0.607999 160.696 0.0959988 163.56 0.0959988C165.224 0.0959988 166.928 0.311999 168.672 0.743999C170.432 1.16 172.016 1.736 173.424 2.472C172.96 3.528 172.472 4.816 171.96 6.336C171.864 6.656 171.784 6.896 171.72 7.056C170.904 6.4 169.672 5.856 168.024 5.424C166.376 4.976 164.92 4.752 163.656 4.752C162.136 4.752 161.112 4.856 160.584 5.064C160.056 5.256 159.792 5.544 159.792 5.928C159.792 6.312 160.152 6.624 160.872 6.864C161.608 7.088 162.664 7.2 164.04 7.2C167.432 7.2 169.896 7.592 171.432 8.376C172.968 9.144 173.736 10.328 173.736 11.928C173.736 14.168 172.92 15.784 171.288 16.776C169.656 17.752 167.184 18.24 163.872 18.24C162.096 18.24 160.288 18.048 158.448 17.664C156.608 17.264 154.952 16.688 153.48 15.936Z" fill="black"/>
</svg>
